<?xml version="1.0" encoding="iso-8859-1"?>
<!-- Generator: Adobe Illustrator 19.0.0, SVG Export Plug-In . SVG Version: 6.00 Build 0)  -->
<svg version="1.1" id="Capa_1" xmlns="http://www.w3.org/2000/svg" xmlns:xlink="http://www.w3.org/1999/xlink" x="0px" y="0px"
	 viewBox="0 0 512.004 512.004" style="enable-background:new 0 0 512.004 512.004;" xml:space="preserve">
<g>
	<g>
		<path d="M509.502,2.504c-3.328-3.337-8.738-3.337-12.066,0L335.302,164.637c-3.337,3.337-3.337,8.73,0,12.066
			c1.664,1.664,3.849,2.5,6.033,2.5c2.185,0,4.369-0.836,6.033-2.5L509.502,14.57C512.838,11.233,512.838,5.84,509.502,2.504z"/>
	</g>
</g>
<g>
	<g>
		<path d="M503.469,0.003H392.535c-4.71,0-8.533,3.823-8.533,8.533s3.823,8.533,8.533,8.533h102.4v102.4
			c0,4.71,3.823,8.533,8.533,8.533s8.533-3.823,8.533-8.533V8.537C512.002,3.826,508.179,0.003,503.469,0.003z"/>
	</g>
</g>
<g>
	<g>
		<path d="M176.702,335.303c-3.328-3.337-8.738-3.337-12.066,0L2.502,497.437c-3.336,3.337-3.336,8.73,0,12.066
			c1.664,1.664,3.849,2.5,6.033,2.5c2.185,0,4.369-0.836,6.033-2.5L176.702,347.37C180.038,344.033,180.038,338.64,176.702,335.303z
			"/>
	</g>
</g>
<g>
	<g>
		<path d="M119.469,494.937h-102.4v-102.4c0-4.71-3.823-8.533-8.533-8.533s-8.533,3.823-8.533,8.533V503.47
			c0,4.71,3.823,8.533,8.533,8.533h110.933c4.71,0,8.533-3.823,8.533-8.533S124.179,494.937,119.469,494.937z"/>
	</g>
</g>
<g>
	<g>
		<path d="M315.735,187.737H196.269c-4.71,0-8.533,3.823-8.533,8.533v119.467c0,4.71,3.823,8.533,8.533,8.533h119.467
			c4.71,0,8.533-3.823,8.533-8.533V196.27C324.269,191.559,320.446,187.737,315.735,187.737z M307.202,307.203h-102.4v-102.4h102.4
			V307.203z"/>
	</g>
</g>
<g>
	<g>
		<path d="M509.502,497.437L347.369,335.303c-3.328-3.337-8.738-3.337-12.066,0c-3.337,3.337-3.337,8.73,0,12.066l162.133,162.133
			c1.664,1.664,3.849,2.5,6.033,2.5c2.185,0,4.369-0.836,6.033-2.5C512.838,506.166,512.838,500.773,509.502,497.437z"/>
	</g>
</g>
<g>
	<g>
		<path d="M503.469,384.003c-4.71,0-8.533,3.823-8.533,8.533v102.4h-102.4c-4.71,0-8.533,3.823-8.533,8.533s3.823,8.533,8.533,8.533
			h110.933c4.71,0,8.533-3.823,8.533-8.533V392.537C512.002,387.826,508.179,384.003,503.469,384.003z"/>
	</g>
</g>
<g>
	<g>
		<path d="M176.702,164.637L14.569,2.503c-3.328-3.336-8.738-3.336-12.066,0c-3.336,3.337-3.336,8.73,0,12.066l162.133,162.133
			c1.664,1.664,3.849,2.5,6.033,2.5c2.185,0,4.369-0.836,6.033-2.5C180.038,173.366,180.038,167.973,176.702,164.637z"/>
	</g>
</g>
<g>
	<g>
		<path d="M119.469,0.003H8.535c-4.71,0-8.533,3.823-8.533,8.533V119.47c0,4.71,3.823,8.533,8.533,8.533s8.533-3.823,8.533-8.533
			V17.07h102.4c4.71,0,8.533-3.823,8.533-8.533S124.179,0.003,119.469,0.003z"/>
	</g>
</g>
<g>
</g>
<g>
</g>
<g>
</g>
<g>
</g>
<g>
</g>
<g>
</g>
<g>
</g>
<g>
</g>
<g>
</g>
<g>
</g>
<g>
</g>
<g>
</g>
<g>
</g>
<g>
</g>
<g>
</g>
</svg>
